<svg xmlns="http://www.w3.org/2000/svg" viewBox="0 0 1440 300" preserveAspectRatio="none">
  <path fill="#F6D8C3" d="
    M0,45
    C53,2 106,68 151,45
    C196,-7 241,78 280,45
    C336,23 392,70 440,45
    C508,-2 575,91 633,45
    C674,21 714,80 749,45
    C791,20 832,100 868,45
    C943,-2 1018,68 1083,45
    C1145,18 1208,79 1261,45
    C1324,22 1386,90 1440,45
    L1440,255
    C1390,289 1340,226 1297,255
    C1246,289 1194,224 1150,255
    C1081,283 1012,231 953,255
    C884,309 815,222 756,255
    C682,293 608,234 544,255
    C468,302 391,227 326,255
    C279,275 233,218 193,255
    C125,284 58,230 0,255
    Z
  "/>
</svg>
